<?xml version="1.0" encoding="utf-8"?>
<!-- Generator: Adobe Illustrator 24.2.0, SVG Export Plug-In . SVG Version: 6.00 Build 0)  -->
<svg version="1.1" id="Capa_1" xmlns="http://www.w3.org/2000/svg" xmlns:xlink="http://www.w3.org/1999/xlink" x="0px" y="0px"
	 viewBox="0 0 300 300" style="enable-background:new 0 0 300 300;" xml:space="preserve">
<style type="text/css">
	.st0{fill:#068DF2;}
</style>
<path class="st0" d="M150,0C67.2,0,0,67.2,0,150s67.2,150,150,150s150-67.2,150-150S232.8,0,150,0z M65.5,252.7h168.9
	C210.7,272.3,181.2,283,150,283S89.3,272.3,65.5,252.7z M75.7,238.6c3.1-25.3,24.8-45,50.9-45c26.1,0,47.8,19.7,50.9,45H75.7z
	 M198.2,148c-1.6-5-3.4-9.6-5.1-13.8c14.2,16.1,30.3,46.9,31.5,104.4h-19.4C211.9,202,205.2,169.4,198.2,148z M247.8,240.1
	c-1.2-0.9-2.7-1.5-4.4-1.5h-4.7c-0.9-46.5-11.3-83-30.7-108.3c-7.4-9.6-14.9-15.9-20.8-19.9c21.6-10.4,38.8,5,39.7,5.8
	c1.3,1.3,3.1,1.9,4.8,1.9c1.1,0,2.3-0.3,3.3-0.8c2.7-1.4,4.2-4.4,3.7-7.4C234,79,218.6,69.1,209.8,66c-2.5-0.9-5.1-1.5-7.7-1.7
	l7.1-14.2c1-2,1-4.3,0.1-6.2s-2.7-3.4-4.9-3.9c-0.9-0.2-23.2-4.8-41.6,13.6c-7.2,7.2-10.8,15.8-10.6,25.5c0.1,3.1,0.5,6.2,1.3,9.2
	c-5.6-2.5-11.8-4.4-18.1-4.5c-9.7-0.2-18.2,3.4-25.5,10.6c-18.4,18.4-13.8,40.6-13.6,41.6c0.5,2.1,1.9,3.9,3.9,4.9
	c1,0.5,2,0.7,3.1,0.7c1.1,0,2.2-0.2,3.2-0.7l12.9-6.5c0.2,9.4,3.3,22.2,12.8,38.7c1.3,2.2,3.6,3.6,6.1,3.6c0.5,0,1-0.1,1.6-0.2
	c3-0.7,5.3-3.3,5.5-6.4c0-0.4,3-36.4,25.3-49.8c8.5,15,30.5,60.7,20.8,115.2c-4.6-31.6-31.9-56-64.8-56c-34,0-62,26-65.2,59.1h-4.9
	c-1.6,0-3.2,0.6-4.4,1.5C29.5,215.5,17,183.7,17,150c0-35.5,13.8-68.9,39-94c25.1-25.1,58.5-39,94-39s68.9,13.8,94,39
	c25.1,25.1,39,58.5,39,94C283,183.7,270.5,215.5,247.8,240.1z M189.7,81.3c1.9-1.7,5.3-3.1,9.2-3.1c1.9,0,4,0.3,6.1,1.1
	c6.5,2.4,11.8,8.1,15.4,16.8c-1.3-0.5-2.7-1-4.2-1.4c-8.3-2.5-19.8-3.6-32.5,1.8C185.8,88.7,188.1,82.8,189.7,81.3z M180.4,70.7
	c-4.5,3.9-7.9,13.1-10.2,21.8c-2.1-4.3-3.6-9.1-3.7-13.8c-0.1-5.7,2-10.7,6.5-15.2c6.3-6.3,13.2-8.8,18.6-9.7l-7.3,14.1
	C182.8,68.7,181.5,69.6,180.4,70.7z M134.4,126.3c1.2-4.1,3.6-7.2,7.2-9c1.3-0.7,4.7-1,9.1-1c0.7,0,1.5,0,2.2,0
	c-8.7,9-14,20.4-17.1,30.4C133.3,138.7,132.8,131.7,134.4,126.3z M123.2,116.5l-12.9,6.5c0.9-5.4,3.4-12.3,9.7-18.6
	c4.5-4.5,9.4-6.6,15.2-6.5c5.1,0.1,10.3,1.9,15,4.3c-5.9,0.1-11.5,0.8-15,2.6C129.9,107.4,125.9,111.4,123.2,116.5z"/>
</svg>
