<?xml version="1.0" encoding="UTF-8" standalone="no"?>
<svg
   xmlns:dc="http://purl.org/dc/elements/1.1/"
   xmlns:cc="http://creativecommons.org/ns#"
   xmlns:rdf="http://www.w3.org/1999/02/22-rdf-syntax-ns#"
   xmlns:svg="http://www.w3.org/2000/svg"
   xmlns="http://www.w3.org/2000/svg"
   viewBox="0 0 1000 666.66669"
   height="666.66669"
   width="1000"
   xml:space="preserve"
   id="svg2"
   version="1.1"><metadata
     id="metadata8"><rdf:RDF><cc:Work
         rdf:about=""><dc:format>image/svg+xml</dc:format><dc:type
           rdf:resource="http://purl.org/dc/dcmitype/StillImage" /></cc:Work></rdf:RDF></metadata><defs
     id="defs6" /><g
     transform="matrix(1.3333333,0,0,-1.3333333,0,666.66667)"
     id="g10"><g
       transform="scale(0.1)"
       id="g12"><path
         id="path14"
         style="fill:#ffffff;fill-opacity:1;fill-rule:nonzero;stroke:none"
         d="M 7500,0 H 0 V 5000 H 7500 V 0" /><path
         id="path16"
         style="fill:#fde0d9;fill-opacity:1;fill-rule:nonzero;stroke:none"
         d="m 4700.15,2741.28 c 0,-98.84 -80.12,-178.97 -178.97,-178.97 -98.84,0 -178.97,80.13 -178.97,178.97 0,98.84 80.13,178.97 178.97,178.97 98.85,0 178.97,-80.13 178.97,-178.97" /><path
         id="path18"
         style="fill:#fde0d9;fill-opacity:1;fill-rule:nonzero;stroke:none"
         d="m 4999.67,3312.04 c -21.48,0.66 -43,-0.97 -65.75,-6.84 8.74,-5.45 15.93,-2.59 22.73,-1.84 14.39,1.57 29.13,1.64 43.02,8.68 m 225.75,-197.68 c -34.39,-2.25 -68.24,-6.09 -99.95,-19.82 35.44,-3.58 68.47,4.79 99.95,19.82 m -596.95,227.91 c 44.11,13.86 92.12,41.01 115.3,65.33 -36.26,-16.69 -70.69,-32.35 -103.04,-52.11 -4.39,-2.69 -10.25,-4.11 -12.26,-13.22 m -241.12,191.57 c 13.18,-31.96 62.3,-68.03 97.74,-72.34 -30.66,26.49 -58.51,56.73 -97.74,72.34 m -138.57,-135.18 c 38.77,-11.74 75.09,-3.78 111.32,5.99 1.54,0.42 3.99,2.96 3.79,3.33 -1.24,2.33 -2.93,4.48 -4.79,6.39 -5.21,5.33 -11.99,4.55 -18.29,3.89 -24.75,-2.54 -49.49,-5.33 -74.17,-8.42 -6.11,-0.77 -12.84,-1.39 -17.86,-11.18 m 495.45,54.58 c -26.52,41.84 -50.99,86.05 -95.06,119.24 7.29,-46.01 39.93,-87.01 95.06,-119.24 m 539.54,-237.5 c 9.63,47.88 0.81,137.31 -16.13,164.59 -17.72,-57.2 -1.05,-108.58 16.13,-164.59 m -251.14,153.21 c 4.99,56.84 -13.32,128.32 -37.94,142.73 -8.89,-53.74 11.21,-98.23 37.94,-142.73 m -37.53,-27.34 c -4.36,9.32 -13.27,10.32 -20.45,13.34 -50.61,21.31 -102.92,37.01 -156.37,49.23 -15.82,3.62 -27.95,0.96 -40.82,-8.84 -38.33,-29.21 -80.25,-52.57 -124.27,-72.16 -12.72,-5.67 -25.73,-10.37 -39.8,-11.03 -9.66,-0.46 -18.58,1.62 -23.57,11.32 -4.95,9.65 -1.58,18.21 4.22,25.91 7.3,9.7 16.97,16.76 26.99,23.53 24.94,16.83 51.28,31.22 80.8,43.69 -9.02,7.96 -16.76,6.38 -23.59,6.67 -36.96,1.63 -74,1.78 -110.9,4.23 -21.83,1.45 -36.96,-6.88 -49.83,-23.42 -15.88,-20.41 -32.36,-40.39 -49.41,-59.82 -10.33,-11.76 -21.85,-22.58 -36.32,-29.55 -8.8,-4.24 -17.7,-6.18 -26.11,0.45 -9.78,7.69 -8.22,18.02 -5.06,28.04 4.02,12.67 12.01,22.93 21.15,32.2 9.67,9.81 19.82,19.15 28.48,32.26 -10.37,-3.63 -20.82,-7.06 -31.1,-10.92 -38.19,-14.28 -77.12,-25.58 -118.05,-28.52 -20.41,-1.47 -40.85,-0.93 -60.18,7.01 -11.32,4.64 -22.22,10.8 -22.79,25.32 -0.57,14.42 9.26,21.18 20.56,26.7 12.66,6.2 26.39,8.24 40.1,10.23 37.55,5.45 75.46,6.51 113.31,8.45 11.92,0.61 23.82,1.51 35.27,2.24 3.44,10.73 -5.18,12.1 -9.69,15.43 -16.48,12.16 -32.81,24.42 -46.24,40.12 -5.47,6.39 -11.01,12.76 -13.75,20.87 -3.65,10.84 -6.29,22.03 2.37,31.58 8.69,9.6 19.94,8.18 30.97,5 18.17,-5.24 33.76,-15.51 48.26,-27.21 28.96,-23.34 57.68,-47 85.89,-71.23 7.39,-6.36 14.01,-11.05 24.27,-10.8 46.25,1.11 92.46,-1.13 138.65,-3.86 2.71,-0.16 5.42,-0.04 7.28,4.32 -13.61,15.11 -28.05,30.54 -41.79,46.57 -15.47,18.03 -25.14,39.12 -29.57,62.42 -2.56,13.49 -1.58,27 11.03,34.85 13.04,8.13 25.26,1.48 35.5,-7.25 27.1,-23.09 48.82,-51.07 69.04,-80.15 13.29,-19.1 25.85,-38.75 37.88,-58.67 5.66,-9.39 12.1,-15.43 23.31,-17.46 64.06,-11.59 125.98,-30.76 186.28,-55.54 2.45,-1 5.31,-0.94 9.77,-1.67 0.39,11.47 -6.71,19.43 -10.61,28.18 -12.74,28.53 -19,58.29 -19.01,89.39 0,4.62 0.5,9.31 1.33,13.85 2.77,15.14 7.16,30.09 24.61,33.24 17.21,3.1 27.27,-8.94 35.54,-21.87 11.25,-17.58 16.65,-37.46 19.78,-57.75 5.38,-34.92 10.17,-69.94 14.5,-105.01 1.34,-10.9 4.52,-18.9 14.74,-24.77 64.94,-37.26 122.08,-84.57 173.88,-138.63 2.51,-2.62 5.63,-4.63 9.81,-8 4.81,12.82 -2.25,22.84 -4.84,32.72 -6.84,26.11 -14.84,51.97 -18.82,78.68 -4.57,30.64 -4.84,61.25 5.99,90.83 4.64,12.69 11.31,24.5 26.75,24.26 15.48,-0.24 22.07,-12.54 26.47,-25.14 7.12,-20.31 9.8,-41.61 12.01,-62.91 5.69,-54.78 5.05,-109.63 0.86,-164.33 -1.62,-21.05 3.48,-37.48 17.52,-53.31 20.35,-22.94 39.07,-47.36 57.89,-71.62 5.91,-7.62 16.62,-17.82 6.38,-26.5 -12.65,-10.72 -18.76,4.07 -25.45,12.15 -20.76,25.1 -41.07,50.58 -62.14,75.41 -14.69,17.29 -17.01,17.49 -37.64,7.58 -48.09,-23.13 -98.31,-37.25 -152.23,-35.86 -12.02,0.31 -24.26,0.62 -35.31,6.21 -14.26,7.23 -16.12,21.36 -3.73,31.36 10.92,8.8 24.35,13.05 37.66,17 37.3,11.03 75.63,16.94 114.11,22.06 8.83,1.17 18.28,0.06 25.97,5.22 1.22,6.23 -2.77,9.12 -5.83,12.48 -46.6,51.19 -98.35,96.22 -156.49,133.78 -12.44,8.03 -22.83,10.59 -38.15,4.47 -56.79,-22.64 -117.03,-24.32 -177.38,-23 -5.44,0.12 -11.19,1.26 -16.21,3.34 -13.84,5.73 -15.98,18.2 -4.93,28.64 7.55,7.15 17.36,10.16 27.19,13.06 28.47,8.37 57.76,12.28 87.09,16.02 8.87,1.13 18.17,0.34 26.97,4.89" /><path
         id="path20"
         style="fill:#fde0d9;fill-opacity:1;fill-rule:nonzero;stroke:none"
         d="M 4054.05,1498.68 H 2494.21 v 952.03 h 1559.84 v -952.03" /><path
         id="path22"
         style="fill:#fde0d9;fill-opacity:1;fill-rule:nonzero;stroke:none"
         d="M 4054.05,3173.35 H 2494.21 v 117.14 h 1559.84 v -117.14" /><path
         id="path24"
         style="fill:#3b3a4d;fill-opacity:1;fill-rule:nonzero;stroke:none"
         d="m 4993.85,3247.11 c -21.46,-1.33 -42.74,-4.94 -64.84,-12.88 9.21,-4.62 16.09,-1.11 22.79,0.26 14.19,2.89 28.86,4.33 42.05,12.62 m 243.01,-176.01 c -34.02,-5.41 -67.37,-12.36 -97.68,-28.96 35.61,-0.3 67.73,11.09 97.68,28.96 m -615.42,171.86 c 42.65,17.87 87.94,49.33 108.78,75.68 -34.57,-19.96 -67.4,-38.72 -97.8,-61.39 -4.11,-3.08 -9.82,-5.03 -10.98,-14.29 m -257.76,168.51 c 16.06,-30.61 68.31,-62 103.99,-63.02 -32.98,23.55 -63.49,51.09 -103.99,63.02 m -125.52,-147.39 c 39.69,-8.12 75.13,3.16 110.3,16.23 1.49,0.56 3.69,3.32 3.47,3.67 -1.46,2.21 -3.34,4.2 -5.37,5.92 -5.67,4.83 -12.36,3.42 -18.57,2.19 -24.41,-4.81 -48.77,-9.88 -73.08,-15.23 -6,-1.33 -12.64,-2.57 -16.75,-12.78 m 488.31,100.06 c -30.27,39.21 -58.72,80.98 -105.66,109.95 11.51,-45.13 47.79,-82.95 105.66,-109.95 m 559.14,-186.72 c 5.18,48.57 -11.86,136.81 -31.24,162.41 -12.37,-58.59 8.98,-108.21 31.24,-162.41 m -264.2,129.39 c -0.27,57.06 -25.1,126.55 -50.94,138.62 -3.9,-54.32 20.22,-96.78 50.94,-138.62 m -34.84,-30.68 c -5.21,8.88 -14.17,9.05 -21.59,11.39 -52.37,16.55 -105.9,27.36 -160.26,34.6 -16.08,2.14 -27.92,-1.63 -39.82,-12.57 -35.48,-32.62 -75.06,-59.76 -117.08,-83.32 -12.16,-6.82 -24.68,-12.69 -38.61,-14.65 -9.58,-1.35 -18.66,-0.11 -24.52,9.1 -5.83,9.15 -3.26,17.98 1.81,26.18 6.38,10.34 15.35,18.25 24.71,25.93 23.28,19.05 48.18,35.81 76.41,50.95 -9.71,7.1 -17.26,4.8 -24.1,4.47 -36.95,-1.79 -73.85,-5.06 -110.82,-6.02 -21.85,-0.57 -36.17,-10.26 -47.45,-27.92 -13.93,-21.79 -28.5,-43.2 -43.68,-64.12 -9.2,-12.67 -19.68,-24.51 -33.43,-32.78 -8.38,-5.03 -17.07,-7.78 -26.05,-1.96 -10.44,6.75 -9.85,17.18 -7.62,27.46 2.82,12.98 9.84,23.93 18.08,34 8.74,10.67 17.96,20.91 25.39,34.75 -10,-4.56 -20.08,-8.95 -29.97,-13.73 -36.7,-17.75 -74.43,-32.59 -114.91,-39.3 -20.18,-3.34 -40.58,-4.7 -60.57,1.43 -11.7,3.59 -23.13,8.7 -25.03,23.11 -1.9,14.31 7.26,21.94 18.01,28.48 12.04,7.35 25.52,10.64 38.98,13.89 36.89,8.89 74.55,13.44 112.05,18.87 11.82,1.71 23.58,3.7 34.91,5.49 2.43,11 -6.27,11.57 -11.07,14.46 -17.53,10.59 -34.91,21.29 -49.74,35.69 -6.03,5.86 -12.15,11.69 -15.61,19.51 -4.64,10.46 -8.3,21.36 -0.56,31.66 7.76,10.36 19.09,9.98 30.38,7.84 18.57,-3.53 35.05,-12.33 50.57,-22.64 30.98,-20.57 61.76,-41.48 92.09,-63.01 7.95,-5.64 14.96,-9.7 25.15,-8.51 45.96,5.38 92.18,7.41 138.42,8.95 2.71,0.09 5.4,0.46 6.85,4.97 -14.93,13.8 -30.75,27.82 -45.91,42.52 -17.06,16.53 -28.63,36.63 -35.2,59.43 -3.8,13.18 -4.07,26.73 7.77,35.71 12.24,9.3 25.01,3.8 36.02,-3.94 29.11,-20.5 53.32,-46.35 76.14,-73.44 14.99,-17.8 29.31,-36.2 43.12,-54.92 6.51,-8.83 13.48,-14.26 24.82,-15.24 64.87,-5.63 128.3,-19.01 190.62,-38.11 2.53,-0.77 5.38,-0.46 9.88,-0.77 -0.66,11.46 -8.47,18.73 -13.16,27.08 -15.32,27.24 -24.29,56.3 -27.18,87.25 -0.42,4.61 -0.35,9.32 0.05,13.92 1.35,15.34 4.35,30.62 21.44,35.37 16.85,4.68 27.97,-6.39 37.41,-18.49 12.82,-16.48 20.03,-35.78 25.02,-55.69 8.58,-34.27 16.57,-68.7 24.12,-103.22 2.34,-10.73 6.24,-18.4 16.96,-23.3 68.11,-31.12 129.37,-72.96 185.93,-122.01 2.73,-2.37 6.03,-4.08 10.51,-7.05 3.6,13.21 -4.36,22.53 -7.85,32.13 -9.2,25.37 -19.57,50.37 -25.99,76.61 -7.37,30.09 -10.47,60.55 -2.41,91 3.44,13.06 8.99,25.42 24.39,26.62 15.44,1.19 23.14,-10.45 28.68,-22.59 8.96,-19.57 13.61,-40.53 17.77,-61.53 10.72,-54.03 15.13,-108.71 16.01,-163.55 0.32,-21.12 6.93,-37 22.37,-51.47 22.37,-20.97 43.28,-43.56 64.25,-65.98 6.58,-7.04 18.2,-16.21 8.79,-25.8 -11.6,-11.84 -19.06,2.32 -26.46,9.75 -22.99,23.09 -45.55,46.59 -68.83,69.36 -16.22,15.86 -18.56,15.85 -38.18,4.07 -45.75,-27.46 -94.45,-46.16 -148.28,-49.74 -12,-0.81 -24.21,-1.63 -35.72,2.92 -14.87,5.88 -18.03,19.79 -6.6,30.88 10.05,9.77 23.03,15.24 35.92,20.4 36.12,14.43 73.74,23.85 111.59,32.49 8.68,1.99 18.19,1.75 25.37,7.6 0.65,6.32 -3.59,8.83 -6.96,11.89 -51.12,46.67 -106.8,86.73 -168.15,118.77 -13.13,6.85 -23.71,8.44 -38.41,0.93 -54.46,-27.78 -114.28,-35.01 -174.5,-39.27 -5.43,-0.37 -11.25,0.23 -16.45,1.83 -14.31,4.44 -17.59,16.65 -7.55,28.07 6.86,7.82 16.35,11.72 25.87,15.51 27.58,10.96 56.38,17.56 85.24,23.99 8.72,1.94 18.06,2.01 26.41,7.36" /><path
         id="path26"
         style="fill:#3b3a4d;fill-opacity:1;fill-rule:nonzero;stroke:none"
         d="M 5503.39,1866.81 H 1996.61 v 944.43 h 446.06 v -34.25 h -411.81 v -875.93 h 3438.28 v 875.93 h -71.93 v 34.25 h 106.18 v -944.43" /><g
         transform="scale(10)"
         id="g28"><text
           id="text32"
           style="font-variant:normal;font-weight:600;font-size:60.26710129px;font-family:JosefinSans;-inkscape-font-specification:JosefinSans-SemiBold;writing-mode:lr-tb;fill:#3b3a4d;fill-opacity:1;fill-rule:nonzero;stroke:none"
           transform="matrix(1,0,0,-1,250.043,252.353)"><tspan
             id="tspan30"
             y="0"
             x="0 31.639612 73.766319 108.84052 156.57207 175.67557 227.20393">FASHION</tspan></text>
<text
           id="text36"
           style="font-variant:normal;font-weight:300;font-size:33.32830048px;font-family:JosefinSans;-inkscape-font-specification:JosefinSans-Light;writing-mode:lr-tb;fill:#3b3a4d;fill-opacity:1;fill-rule:nonzero;stroke:none"
           transform="matrix(1,0,0,-1,254.19901,212.2928)"><tspan
             id="tspan34"
             y="0"
             x="0 19.363743 29.59553 48.825958 59.057747 87.786232 98.018021 119.11483 129.34662">S T O R E</tspan></text>
</g><path
         id="path38"
         style="fill:#3b3a4d;fill-opacity:1;fill-rule:nonzero;stroke:none"
         d="M 5288.39,2150.46 H 4111.9 v 12.84 h 1176.49 v -12.84" /><path
         id="path40"
         style="fill:#3b3a4d;fill-opacity:1;fill-rule:nonzero;stroke:none"
         d="m 4509,2805.12 c -82.13,0 -81.7,-127.68 0.68,-127.68 82.14,0 81.71,127.68 -0.68,127.68" /><g
         transform="scale(10)"
         id="g42"><text
           id="text46"
           style="font-variant:normal;font-weight:normal;font-size:10.83129978px;font-family:JosefinSans;-inkscape-font-specification:JosefinSans-Regular;writing-mode:lr-tb;fill:#3b3a4d;fill-opacity:1;fill-rule:nonzero;stroke:none"
           transform="matrix(1,0,0,-1,412.793,166.217)"><tspan
             id="tspan44"
             y="0"
             x="0 6.3038168 9.6073627 18.683992 26.200914 33.273754 46.963688 52.866745 59.625477 63.199806 68.863892 72.286583 83.204536 86.50808 92.811897 101.27114 104.69383 111.54929 120.83172">SINCE 2015 WITH YOU</tspan></text>
</g><path
         id="path48"
         style="fill:#fde0d9;fill-opacity:1;fill-rule:nonzero;stroke:none"
         d="m 4531.04,1721.5 c -26.61,0 -26.47,-41.37 0.22,-41.37 26.61,0 26.46,41.37 -0.22,41.37" /></g></g></svg>