<?xml version="1.0" encoding="utf-8"?>
<!-- Generator: Adobe Illustrator 24.2.0, SVG Export Plug-In . SVG Version: 6.00 Build 0)  -->
<svg version="1.1" id="Capa_1" xmlns="http://www.w3.org/2000/svg" xmlns:xlink="http://www.w3.org/1999/xlink" x="0px" y="0px"
	 viewBox="0 0 300 85.2" style="enable-background:new 0 0 300 85.2;" xml:space="preserve">
<style type="text/css">
	.st0{fill:#0F0F0F;}
	.st1{fill:url(#SVGID_1_);stroke:#39ADD4;stroke-width:3;stroke-miterlimit:10;}
	.st2{fill:url(#SVGID_2_);stroke:#39ADD4;stroke-width:3;stroke-miterlimit:10;}
	.st3{fill:url(#SVGID_3_);stroke:#39ADD4;stroke-width:3;stroke-miterlimit:10;}
	.st4{fill:url(#SVGID_4_);stroke:#39ADD4;stroke-width:3;stroke-miterlimit:10;}
	.st5{fill:url(#SVGID_5_);stroke:#39ADD4;stroke-width:3;stroke-miterlimit:10;}
	.st6{fill:url(#SVGID_6_);}
	.st7{fill:url(#SVGID_7_);}
	.st8{fill:url(#SVGID_8_);}
	.st9{fill:url(#SVGID_9_);}
	.st10{fill:url(#SVGID_10_);}
	.st11{fill:url(#SVGID_11_);}
</style>
<symbol  id="Nuevo_símbolo" viewBox="-411.2 -116.8 822.3 233.5">
	<path class="st0" d="M-411.2,116.8v-233.5h822.3v233.5H-411.2z M388.3-95.5h-557.5V95.5h557.5V-95.5z"/>
	<g>
		<g>
			<linearGradient id="SVGID_1_" gradientUnits="userSpaceOnUse" x1="-80.0527" y1="-22.7008" x2="-80.0527" y2="61.9003">
				<stop  offset="4.475343e-07" style="stop-color:#0175BE"/>
				<stop  offset="0.2615" style="stop-color:#0A7EC2"/>
				<stop  offset="0.6918" style="stop-color:#2397CB"/>
				<stop  offset="1" style="stop-color:#39ADD4"/>
			</linearGradient>
			<path class="st1" d="M-31.6,61.9V40.3h-35.6v-63h-25.6v63h-35.6v21.6H-31.6z"/>
			<linearGradient id="SVGID_2_" gradientUnits="userSpaceOnUse" x1="-7.661" y1="-22.7008" x2="-7.661" y2="61.9003">
				<stop  offset="4.475343e-07" style="stop-color:#0175BE"/>
				<stop  offset="0.2615" style="stop-color:#0A7EC2"/>
				<stop  offset="0.6918" style="stop-color:#2397CB"/>
				<stop  offset="1" style="stop-color:#39ADD4"/>
			</linearGradient>
			<path class="st2" d="M5.1,61.9v-84.6h-25.4v84.6H5.1z"/>
			<linearGradient id="SVGID_3_" gradientUnits="userSpaceOnUse" x1="71.5017" y1="-23.969" x2="71.5017" y2="63.1686">
				<stop  offset="4.475343e-07" style="stop-color:#0175BE"/>
				<stop  offset="0.2615" style="stop-color:#0A7EC2"/>
				<stop  offset="0.6918" style="stop-color:#2397CB"/>
				<stop  offset="1" style="stop-color:#39ADD4"/>
			</linearGradient>
			<path class="st3" d="M44.1,5.3c0-5.1,0.5-6.7,2.6-8c2.5-1.5,5.3-1.8,23.9-1.8c28.4,0,28.4,0,28.4,7.5c0,5.1-2,6.3-10.4,6.5
				l-20.8,0.8l-14,0.6l-7,0.3c-21.5,0.6-27.4,6-27.4,24.6c0,16.1,4.7,23.3,16.6,25.9c5.1,1,17,1.5,37.9,1.5
				c25.2,0,34.3-1.1,40.5-5.2c5.2-3.4,7.3-8.8,7.3-18.8c0-0.5,0-2.3-0.1-3.9H95.8c-0.3,4.7-0.6,5.8-2.6,7c-2.2,1.3-5.5,1.5-24.2,1.5
				c-22.4,0-24.2-0.5-24.2-6.7c0-3.2,1.2-4.8,3.9-5.5c2.3-0.6,9.5-1,27.8-1.5c28.6-0.9,34.2-1.5,39.8-4.9c6-3.8,8.2-9.5,8.2-21.3
				c0-14.7-3.6-21.9-12.6-25.2c-5.2-1.9-16.1-2.5-42-2.5C43-24,32.5-22.8,26.4-19c-6,3.7-7.9,8.6-7.9,20.3v4.1H44.1z"/>
			<linearGradient id="SVGID_4_" gradientUnits="userSpaceOnUse" x1="181.9015" y1="-22.7008" x2="181.9015" y2="61.9003">
				<stop  offset="4.475343e-07" style="stop-color:#0175BE"/>
				<stop  offset="0.2615" style="stop-color:#0A7EC2"/>
				<stop  offset="0.6918" style="stop-color:#2397CB"/>
				<stop  offset="1" style="stop-color:#39ADD4"/>
			</linearGradient>
			<path class="st4" d="M228.5,61.9V42h-68.3V29.7h64.9V11h-64.9V-2.4H229v-20.3h-94.2v84.6H228.5z"/>
			<linearGradient id="SVGID_5_" gradientUnits="userSpaceOnUse" x1="296.8108" y1="-22.7008" x2="296.8108" y2="61.9003">
				<stop  offset="4.475343e-07" style="stop-color:#0175BE"/>
				<stop  offset="0.2615" style="stop-color:#0A7EC2"/>
				<stop  offset="0.6918" style="stop-color:#2397CB"/>
				<stop  offset="1" style="stop-color:#39ADD4"/>
			</linearGradient>
			<path class="st5" d="M246,61.9h60.1c28.2,0,28.2,0,33.4-3.3c6.2-3.9,8.1-9.5,8.1-24.2c0-12.6-1.2-17.4-5.6-20.8
				c-2.3-1.9-4.7-2.8-9.5-3.6c12.6-1.5,14.8-5.3,14.3-24.9v-7.9h-24.5v4.4c0,9.5-0.5,12.6-2.4,14.7c-1.7,2-3.5,2.3-13.8,2.3h-35.1
				v-21.4H246V61.9z M305.9,19.9c12.5,0.3,12.5,0.3,14.2,1.5c2,1.3,2.7,3.8,2.7,9.1c0,5.7-1,8.1-3.5,9.3c-1.7,0.8-2.1,0.8-13.3,0.9
				h-35V19.9H305.9z"/>
		</g>
	</g>
	<g>
		<g>
			<linearGradient id="SVGID_6_" gradientUnits="userSpaceOnUse" x1="-308.3813" y1="28.1454" x2="-193.3235" y2="28.1454">
				<stop  offset="2.237672e-07" style="stop-color:#DCDCDC"/>
				<stop  offset="0.3735" style="stop-color:#D9D9D9"/>
				<stop  offset="0.6439" style="stop-color:#D0D0D0"/>
				<stop  offset="0.8696" style="stop-color:#C1C1C1"/>
			</linearGradient>
			<path class="st6" d="M-205,26l11.7,2.1l-3.4,19.4l-11.6-2c-1.5,3.8-3.6,7.3-6,10.5l7.6,9.1l-15.1,12.7l-7.6-9
				c-3.5,1.9-7.4,3.3-11.4,4.2v11.9h-19.7V73.1c-4-0.9-7.9-2.3-11.4-4.1l-7.6,9.1l-15.1-12.7l7.6-9c-2.5-3.2-4.6-6.7-6.1-10.5
				l-11.7,2.1l-3.4-19.4l11.6-2c0.1-4.2,0.9-8.2,2-12L-305,8.6l9.9-17.1l10.2,5.9c2.7-3,5.8-5.6,9.2-7.8l-4.1-11.2l18.5-6.7l4,11.1
				c2.1-0.3,4.2-0.4,6.3-0.4c2,0,3.9,0.1,5.8,0.4l4.1-11.2l18.5,6.8l-4,11.1c3.4,2.2,6.6,4.8,9.3,7.8l10.3-5.9l9.9,17.1l-10.2,5.9
				C-206,17.8-205.2,21.9-205,26z M-274.6,28.2c0,13.1,10.6,23.7,23.7,23.7c13.1,0,23.7-10.6,23.7-23.7c0-13.1-10.6-23.7-23.7-23.7
				C-264,4.5-274.6,15.1-274.6,28.2z"/>
			<linearGradient id="SVGID_7_" gradientUnits="userSpaceOnUse" x1="-193.3236" y1="28.1454" x2="-308.3813" y2="28.1454">
				<stop  offset="2.237672e-07" style="stop-color:#C1C1C1"/>
				<stop  offset="9.934112e-02" style="stop-color:#C1C1C1"/>
				<stop  offset="1" style="stop-color:#C1C1C1"/>
			</linearGradient>
			<path class="st7" d="M-244,81.7V73v-2.5l2.5-0.6c3.7-0.8,7.3-2.2,10.6-3.9l2.3-1.2l1.6,2l5.5,6.6l10.3-8.6l-5.6-6.7l-1.6-1.9
				l1.5-2c2.3-3,4.2-6.3,5.6-9.8l1-2.4l2.5,0.4l8.5,1.5l2.3-13.2l-8.6-1.5l-2.5-0.4l-0.1-2.5c-0.2-3.8-0.8-7.5-2-11.1l-0.8-2.4
				l2.2-1.3l7.5-4.3L-208-4.6l-7.6,4.4l-2.2,1.3l-1.7-1.9c-2.6-2.8-5.5-5.2-8.7-7.2l-2.2-1.4l0.9-2.4l2.9-8.1l-12.6-4.6l-3,8.2
				l-0.9,2.4l-2.5-0.3c-1.8-0.2-3.6-0.3-5.4-0.3c-2,0-3.9,0.1-5.9,0.4l-2.5,0.4l-0.9-2.4l-3-8.1l-12.6,4.6l3,8.2l0.9,2.4l-2.1,1.4
				c-3.2,2.1-6.1,4.5-8.6,7.3l-1.7,1.9l-2.2-1.3l-7.5-4.3l-6.7,11.6l7.5,4.4l2.2,1.3l-0.8,2.4c-1.1,3.6-1.8,7.4-1.9,11.1l-0.1,2.6
				l-2.5,0.4l-8.5,1.5l2.3,13.2l8.6-1.5l2.5-0.4l1,2.3c1.5,3.5,3.4,6.8,5.7,9.7l1.6,2l-1.6,2l-5.5,6.6l10.3,8.6l5.6-6.7l1.6-1.9
				l2.2,1.2c3.4,1.7,6.9,3,10.6,3.8l2.5,0.5v2.6v8.6H-244 M-250.9,1.3c14.8,0,26.9,12,26.9,26.9s-12,26.9-26.9,26.9
				c-14.8,0-26.9-12-26.9-26.9S-265.7,1.3-250.9,1.3 M-240.8,84.8h-19.7V73.1c-4-0.9-7.9-2.3-11.4-4.1l-7.6,9.1l-15.1-12.7l7.6-9
				c-2.5-3.2-4.6-6.7-6.1-10.5l-11.7,2.1l-3.4-19.4l11.6-2c0.1-4.2,0.9-8.2,2-12L-305,8.6l9.9-17.1l10.2,5.9c2.7-3,5.8-5.6,9.2-7.8
				l-4.1-11.2l18.5-6.7l4,11.1c2.1-0.3,4.2-0.4,6.3-0.4c2,0,3.9,0.1,5.8,0.4l4.1-11.2l18.5,6.8l-4,11.1c3.4,2.2,6.6,4.8,9.3,7.8
				l10.3-5.9l9.9,17.1l-10.2,5.9c1.2,3.8,2,7.8,2.2,11.9l11.7,2.1l-3.4,19.4l-11.6-2c-1.5,3.8-3.6,7.3-6,10.5l7.6,9.1l-15.1,12.7
				l-7.6-9c-3.5,1.9-7.4,3.3-11.4,4.2V84.8L-240.8,84.8z M-250.9,4.5c-13.1,0-23.7,10.6-23.7,23.7c0,13.1,10.6,23.7,23.7,23.7
				c13.1,0,23.7-10.6,23.7-23.7C-227.2,15.1-237.8,4.5-250.9,4.5L-250.9,4.5z"/>
		</g>
		<g>
			<g>
				<linearGradient id="SVGID_8_" gradientUnits="userSpaceOnUse" x1="-360.1777" y1="-43.9865" x2="-279.2683" y2="-43.9865">
					<stop  offset="2.237672e-07" style="stop-color:#DCDCDC"/>
					<stop  offset="0.3735" style="stop-color:#D9D9D9"/>
					<stop  offset="0.6439" style="stop-color:#D0D0D0"/>
					<stop  offset="0.8696" style="stop-color:#C1C1C1"/>
				</linearGradient>
				<path class="st8" d="M-287.7-50l8.4,0.3l-0.5,14l-8.4-0.3c-0.7,2.8-1.8,5.5-3.2,8l6.3,5.7l-9.4,10.4l-6.2-5.6
					c-2.3,1.7-4.9,3.1-7.6,4.1l1.2,8.4l-13.9,1.9l-1.2-8.3c-2.9-0.2-5.8-0.8-8.4-1.8L-335-6l-11.9-7.4l4.4-7.1
					c-2.1-2-3.9-4.3-5.3-6.8l-8,2.6l-4.3-13.3l8-2.6c-0.3-2.9-0.2-5.8,0.3-8.6l-7.8-3.2l5.3-13l7.8,3.1c1.6-2.4,3.5-4.5,5.7-6.4
					l-4-7.5l12.4-6.6l3.9,7.4c1.4-0.4,2.9-0.7,4.4-0.9c1.4-0.2,2.8-0.3,4.1-0.3l1.8-8.3l13.7,2.9l-1.7,8.2c2.6,1.2,5.1,2.7,7.3,4.5
					l6.7-5.2l8.6,11l-6.6,5.2C-289.2-55.7-288.2-52.9-287.7-50z M-336.4-41.6c1.3,9.2,9.8,15.6,19,14.3c9.2-1.3,15.6-9.8,14.3-19
					c-1.3-9.2-9.8-15.6-19-14.3C-331.3-59.3-337.7-50.8-336.4-41.6z"/>
			</g>
			<g>
				<linearGradient id="SVGID_9_" gradientUnits="userSpaceOnUse" x1="-279.2683" y1="-43.9865" x2="-360.1777" y2="-43.9865">
					<stop  offset="2.237672e-07" style="stop-color:#C1C1C1"/>
					<stop  offset="9.934112e-02" style="stop-color:#C1C1C1"/>
					<stop  offset="1" style="stop-color:#C1C1C1"/>
				</linearGradient>
				<path class="st9" d="M-319.2-5.5l9.7-1.4l-0.9-6.3l-0.2-1.7l1.6-0.6c2.5-1,4.9-2.2,7.1-3.8l1.4-1l1.3,1.1l4.6,4.2l6.6-7.3
					l-4.7-4.2l-1.3-1.1l0.8-1.5c1.3-2.4,2.3-4.9,3-7.5l0.4-1.7l1.7,0.1l6.3,0.2l0.3-9.8l-6.3-0.2l-1.7-0.1l-0.3-1.7
					c-0.5-2.7-1.3-5.2-2.5-7.7l-0.7-1.5l1.3-1l4.9-3.9l-6-7.7l-5,3.9l-1.3,1l-1.3-1.1c-2.1-1.7-4.4-3.1-6.9-4.2l-1.6-0.7l0.4-1.7
					l1.3-6.1l-9.6-2l-1.3,6.2l-0.3,1.6l-1.7,0c-1.3,0-2.6,0.1-3.9,0.3c-1.4,0.2-2.8,0.5-4.1,0.9l-1.6,0.5l-0.8-1.5l-2.9-5.5
					l-8.7,4.6l3,5.6l0.8,1.5l-1.3,1.1c-2.1,1.8-3.9,3.8-5.4,6l-1,1.4l-1.6-0.6l-5.8-2.3l-3.7,9.1l5.9,2.4l1.6,0.6l-0.3,1.7
					c-0.4,2.7-0.5,5.4-0.2,8.1l0.2,1.7l-1.6,0.5l-6,1.9l3,9.3l6-2l1.6-0.5l0.9,1.4c1.4,2.3,3.1,4.5,5,6.3l1.2,1.2l-0.9,1.5l-3.3,5.3
					l8.3,5.2l3.4-5.4l0.9-1.4l1.6,0.6c2.5,0.9,5.2,1.4,7.9,1.6l1.7,0.1l0.2,1.7L-319.2-5.5 M-319.7-62.9c9.4,0,17.4,7,18.7,16.3
					c0.7,5-0.6,10-3.6,14c-3,4-7.5,6.7-12.5,7.4c-0.9,0.1-1.8,0.2-2.7,0.2c-9.4,0-17.4-7-18.7-16.3c-0.7-5,0.6-10,3.6-14
					c3-4,7.5-6.7,12.5-7.4C-321.5-62.8-320.6-62.9-319.7-62.9 M-320.9-3.1l-1.2-8.3c-2.9-0.2-5.8-0.8-8.4-1.8L-335-6l-11.9-7.4
					l4.4-7.1c-2.1-2-3.9-4.3-5.3-6.8l-8,2.6l-4.3-13.3l8-2.6c-0.3-2.9-0.2-5.8,0.3-8.6l-7.8-3.2l5.3-13l7.8,3.1
					c1.6-2.4,3.5-4.5,5.7-6.4l-4-7.5l12.4-6.6l3.9,7.4c1.4-0.4,2.9-0.7,4.4-0.9c1.4-0.2,2.8-0.3,4.1-0.3l1.8-8.3l13.7,2.9l-1.7,8.2
					c2.6,1.2,5.1,2.7,7.3,4.5l6.7-5.2l8.6,11l-6.6,5.2c1.2,2.5,2.2,5.3,2.7,8.2l8.4,0.3l-0.5,14l-8.4-0.3c-0.7,2.8-1.8,5.5-3.2,8
					l6.3,5.7l-9.4,10.4l-6.2-5.6c-2.3,1.7-4.9,3.1-7.6,4.1l1.2,8.4L-320.9-3.1L-320.9-3.1z M-319.7-60.8c-0.8,0-1.6,0.1-2.4,0.2
					c-9.2,1.3-15.6,9.8-14.3,19c1.2,8.4,8.4,14.5,16.7,14.5c0.8,0,1.6-0.1,2.4-0.2c9.2-1.3,15.6-9.8,14.3-19
					C-304.3-54.7-311.5-60.8-319.7-60.8L-319.7-60.8z"/>
			</g>
		</g>
		<g>
			<g>
				<linearGradient id="SVGID_10_" gradientUnits="userSpaceOnUse" x1="-376.0771" y1="28.2052" x2="-310.7585" y2="28.2052">
					<stop  offset="2.237672e-07" style="stop-color:#DCDCDC"/>
					<stop  offset="0.3735" style="stop-color:#D9D9D9"/>
					<stop  offset="0.6439" style="stop-color:#D0D0D0"/>
					<stop  offset="0.8696" style="stop-color:#C1C1C1"/>
				</linearGradient>
				<path class="st10" d="M-317.2,31.6l6.4,2.4l-3.9,10.7l-6.4-2.3c-1.3,2-2.8,3.8-4.5,5.4l3.4,5.9l-9.9,5.7l-3.4-5.9
					c-2.2,0.7-4.5,1.1-6.9,1.2l-1.2,6.7l-11.2-2l1.2-6.7c-2.2-0.9-4.2-2.1-6.1-3.5l-5.3,4.4l-7.3-8.7l5.2-4.4
					c-1.1-2.1-1.9-4.3-2.4-6.6l-6.8,0l0-11.4l6.8,0c0.5-2.3,1.3-4.5,2.4-6.6l-5.2-4.4l7.3-8.7l5.2,4.4c1.8-1.4,3.9-2.6,6-3.5
					l-1.2-6.7l11.2-1.9l1.2,6.7c1.2,0,2.4,0.2,3.6,0.4c1.1,0.2,2.2,0.5,3.3,0.8L-332-3l9.8,5.7l-3.4,5.9c1.7,1.6,3.2,3.4,4.5,5.3
					l6.4-2.3l3.9,10.7l-6.4,2.3C-316.9,26.9-316.9,29.2-317.2,31.6z M-356.9,25.8c-1.3,7.4,3.6,14.5,11,15.8
					c7.4,1.3,14.5-3.6,15.8-11c1.3-7.4-3.6-14.5-11-15.8C-348.4,13.4-355.5,18.4-356.9,25.8z"/>
			</g>
			<g>
				<linearGradient id="SVGID_11_" gradientUnits="userSpaceOnUse" x1="-310.7585" y1="28.2052" x2="-376.0771" y2="28.2052">
					<stop  offset="2.237672e-07" style="stop-color:#C1C1C1"/>
					<stop  offset="9.934112e-02" style="stop-color:#C1C1C1"/>
					<stop  offset="1" style="stop-color:#C1C1C1"/>
				</linearGradient>
				<path class="st11" d="M-345.1,58.9l0.8-4.7l0.3-1.7l1.7-0.1c2.2-0.1,4.3-0.5,6.3-1.1l1.6-0.5l0.9,1.5l2.3,4.1l6.2-3.6l-2.4-4.1
					l-0.8-1.5l1.2-1.1c1.6-1.5,3-3.1,4.1-4.9l0.9-1.4l1.6,0.6l4.4,1.6l2.5-6.7l-4.4-1.6l-1.6-0.6l0.2-1.7c0.3-2.1,0.3-4.3,0-6.4
					l-0.2-1.7l1.6-0.6l4.4-1.6l-2.4-6.7l-4.5,1.6l-1.6,0.6l-0.9-1.4c-1.2-1.8-2.6-3.5-4.1-4.9l-1.3-1.1l0.9-1.5l2.3-4l-6.2-3.6
					l-2.4,4.1l-0.8,1.5l-1.6-0.5c-1-0.3-2-0.6-3-0.7c-1.1-0.2-2.2-0.3-3.3-0.4l-1.7-0.1l-0.3-1.7l-0.8-4.6l-7,1.2l0.8,4.7l0.3,1.7
					l-1.6,0.6c-2,0.8-3.9,1.9-5.6,3.2l-1.3,1l-1.3-1.1l-3.6-3l-4.6,5.5l3.6,3.1l1.3,1.1L-365,17c-1,1.9-1.7,3.9-2.2,6l-0.4,1.7
					l-1.7,0l-4.7,0l0,7.2l4.7,0l1.7,0l0.4,1.6c0.5,2.1,1.2,4.1,2.2,6l0.8,1.5l-1.3,1.1l-3.6,3l4.6,5.5l3.6-3l1.3-1.1l1.3,1
					c1.7,1.3,3.6,2.4,5.6,3.2l1.6,0.6l-0.3,1.7l-0.8,4.6L-345.1,58.9 M-343.4,12.4c0.9,0,1.9,0.1,2.8,0.2
					c8.6,1.5,14.3,9.7,12.7,18.3c-1.3,7.5-7.9,13-15.5,13c-0.9,0-1.9-0.1-2.8-0.2c-4.1-0.7-7.8-3.1-10.2-6.5
					c-2.4-3.5-3.3-7.6-2.6-11.8C-357.6,17.9-351.1,12.4-343.4,12.4 M-343.4,61.3l-11.2-2l1.2-6.7c-2.2-0.9-4.2-2.1-6.1-3.5l-5.3,4.4
					l-7.3-8.7l5.2-4.4c-1.1-2.1-1.9-4.3-2.4-6.6l-6.8,0l0-11.4l6.8,0c0.5-2.3,1.3-4.5,2.4-6.6l-5.2-4.4l7.3-8.7l5.2,4.4
					c1.8-1.4,3.9-2.6,6-3.5l-1.2-6.7l11.2-1.9l1.2,6.7c1.2,0,2.4,0.2,3.6,0.4c1.1,0.2,2.2,0.5,3.3,0.8L-332-3l9.8,5.7l-3.4,5.9
					c1.7,1.6,3.2,3.4,4.5,5.3l6.4-2.3l3.9,10.7l-6.4,2.3c0.3,2.3,0.3,4.6,0,7l6.4,2.4l-3.9,10.7l-6.4-2.3c-1.3,2-2.8,3.8-4.5,5.4
					l3.4,5.9l-9.9,5.7l-3.4-5.9c-2.2,0.7-4.5,1.1-6.9,1.2L-343.4,61.3L-343.4,61.3z M-343.4,14.5c-6.5,0-12.2,4.6-13.4,11.2
					c-1.3,7.4,3.6,14.5,11,15.8c0.8,0.1,1.6,0.2,2.4,0.2c6.5,0,12.2-4.6,13.4-11.3c1.3-7.4-3.6-14.5-11-15.8
					C-341.8,14.6-342.6,14.5-343.4,14.5L-343.4,14.5z"/>
			</g>
		</g>
	</g>
	<g>
		<path d="M-129-58.3c0.9-0.6,2.3-1.1,3.8-1.1c2.2,0,3.4,1.1,3.4,2.8c0,1.5-0.9,2.4-3.1,3.2c-2.7,0.9-4.3,2.3-4.3,4.6
			c0,2.5,2.1,4.4,5.3,4.4c1.7,0,2.9-0.4,3.6-0.8l-0.6-1.7c-0.5,0.3-1.6,0.8-3.1,0.8c-2.2,0-3.1-1.3-3.1-2.4c0-1.5,1-2.3,3.2-3.1
			c2.8-1.1,4.2-2.4,4.2-4.8c0-2.5-1.8-4.7-5.7-4.7c-1.6,0-3.3,0.5-4.2,1.1L-129-58.3z"/>
		<path d="M-99.1-53.2h-6.3v-5.9h7.1v-1.8h-9.2v16.3h8.8v-1.8h-6.7v-5.2h6.3V-53.2z"/>
		<path d="M-86.4-44.8c1.1,0.2,2.6,0.4,4.1,0.4c2.2,0,3.7-0.4,4.7-1.3c0.8-0.7,1.3-1.8,1.3-3.1c0-2.1-1.4-3.6-3.1-4.2v-0.1
			c1.2-0.4,2-1.6,2.4-3.3c0.5-2.3,0.9-3.8,1.3-4.5H-78c-0.3,0.5-0.6,1.9-1.1,3.9c-0.5,2.2-1.4,3.1-3.3,3.2h-2v-7.1h-2.1V-44.8z
			 M-84.3-52.2h2.2c2.3,0,3.7,1.2,3.7,3.1c0,2.1-1.5,3-3.8,3c-1,0-1.7-0.1-2.1-0.2V-52.2z"/>
		<path d="M-60.2-60.9l-5.3,16.3h2.3l2.5-8c0.7-2.2,1.3-4.2,1.7-6.1h0.1c0.5,1.9,1.1,3.9,1.9,6.1l2.8,8.1h2.3l-5.8-16.3H-60.2z"/>
		<path d="M-38.9-44.6v-16.3H-41v16.3H-38.9z"/>
		<path d="M-14.6-60.4c-0.8-0.4-2.3-0.8-4.3-0.8c-4.6,0-8,2.9-8,8.3c0,5.1,3.5,8.6,8.5,8.6c2,0,3.3-0.4,3.9-0.7l-0.5-1.7
			c-0.8,0.4-1.9,0.7-3.3,0.7c-3.8,0-6.4-2.4-6.4-6.7c0-4,2.3-6.5,6.3-6.5c1.3,0,2.6,0.3,3.5,0.7L-14.6-60.4z"/>
		<path d="M-0.6-44.6v-16.3h-2.1v16.3H-0.6z"/>
		<path d="M26.3-52.6c0-5.6-3.4-8.6-7.6-8.6c-4.3,0-7.3,3.4-7.3,8.3c0,5.2,3.2,8.6,7.6,8.6C23.4-44.3,26.3-47.7,26.3-52.6z
			 M13.6-52.8c0-3.5,1.9-6.6,5.2-6.6c3.3,0,5.2,3.1,5.2,6.8c0,3.2-1.7,6.6-5.2,6.6C15.4-46,13.6-49.3,13.6-52.8z"/>
		<path d="M38-58.3c0.9-0.6,2.3-1.1,3.8-1.1c2.2,0,3.4,1.1,3.4,2.8c0,1.5-0.9,2.4-3.1,3.2c-2.7,0.9-4.3,2.3-4.3,4.6
			c0,2.5,2.1,4.4,5.3,4.4c1.7,0,2.9-0.4,3.6-0.8l-0.6-1.7c-0.5,0.3-1.6,0.8-3.1,0.8c-2.2,0-3.1-1.3-3.1-2.4c0-1.5,1-2.3,3.2-3.1
			c2.8-1.1,4.2-2.4,4.2-4.8c0-2.5-1.8-4.7-5.7-4.7c-1.6,0-3.3,0.5-4.2,1.1L38-58.3z"/>
		<path d="M73.9-44.8c1,0.2,2.3,0.3,4.1,0.3c2.1,0,3.6-0.5,4.6-1.4c0.9-0.8,1.4-2,1.4-3.4c0-1.5-0.4-2.6-1.3-3.5
			c-1.1-1.2-2.9-1.8-5-1.8c-0.6,0-1.2,0-1.7,0.2v-6.5h-2.1V-44.8z M76-52.6c0.5-0.1,1.1-0.2,1.7-0.2c2.6,0,4.1,1.3,4.1,3.5
			c0,2.2-1.5,3.2-3.9,3.2c-0.9,0-1.6-0.1-2-0.2V-52.6z"/>
		<path d="M96-44.8c1.1,0.2,2.6,0.4,4.1,0.4c2.2,0,3.7-0.4,4.7-1.3c0.8-0.7,1.3-1.8,1.3-3.1c0-2.1-1.4-3.6-3.1-4.2v-0.1
			c1.2-0.4,2-1.6,2.4-3.3c0.5-2.3,0.9-3.8,1.3-4.5h-2.2c-0.3,0.5-0.6,1.9-1.1,3.9c-0.5,2.2-1.4,3.1-3.3,3.2h-2v-7.1H96V-44.8z
			 M98.1-52.2h2.2c2.3,0,3.7,1.2,3.7,3.1c0,2.1-1.5,3-3.8,3c-1,0-1.7-0.1-2.1-0.2V-52.2z"/>
		<path d="M132.3-52.6c0-5.6-3.4-8.6-7.6-8.6c-4.3,0-7.3,3.4-7.3,8.3c0,5.2,3.2,8.6,7.6,8.6C129.4-44.3,132.3-47.7,132.3-52.6z
			 M119.6-52.8c0-3.5,1.9-6.6,5.2-6.6c3.3,0,5.2,3.1,5.2,6.8c0,3.2-1.7,6.6-5.2,6.6C121.4-46,119.6-49.3,119.6-52.8z"/>
		<path d="M144.3-44.6h8.8v-1.8h-6.7v-5.4h6.2v-1.7h-6.2v-7.4h-2.1V-44.6z"/>
		<path d="M173.7-53.2h-6.3v-5.9h7.1v-1.8h-9.2v16.3h8.8v-1.8h-6.7v-5.2h6.3V-53.2z"/>
		<path d="M186.2-58.3c0.9-0.6,2.3-1.1,3.8-1.1c2.2,0,3.4,1.1,3.4,2.8c0,1.5-0.9,2.4-3.1,3.2c-2.7,0.9-4.3,2.3-4.3,4.6
			c0,2.5,2.1,4.4,5.3,4.4c1.7,0,2.9-0.4,3.6-0.8l-0.6-1.7c-0.5,0.3-1.6,0.8-3.1,0.8c-2.2,0-3.1-1.3-3.1-2.4c0-1.5,1-2.3,3.2-3.1
			c2.8-1.1,4.2-2.4,4.2-4.8c0-2.5-1.8-4.7-5.7-4.7c-1.6,0-3.3,0.5-4.2,1.1L186.2-58.3z"/>
		<path d="M209.8-44.6v-16.3h-2.1v16.3H209.8z"/>
		<path d="M236.6-52.6c0-5.6-3.4-8.6-7.6-8.6c-4.3,0-7.3,3.4-7.3,8.3c0,5.2,3.2,8.6,7.6,8.6C233.7-44.3,236.6-47.7,236.6-52.6z
			 M224-52.8c0-3.5,1.9-6.6,5.2-6.6c3.3,0,5.2,3.1,5.2,6.8c0,3.2-1.7,6.6-5.2,6.6C225.7-46,224-49.3,224-52.8z"/>
		<path d="M248.6-60.9v16.3h2.3l5.2-8.2c1.2-1.9,2.1-3.6,2.9-5.3l0.1,0c-0.2,2.2-0.2,4.2-0.2,6.7v6.8h2v-16.3h-2.1l-5.2,8.3
			c-1.1,1.8-2.2,3.7-3,5.5l-0.1,0c0.1-2.1,0.2-4,0.2-6.7v-7H248.6z"/>
		<path d="M276.4-55.8l-1.7-5.1h-2.2l5.6,16.3h2.5l5.6-16.3H284l-1.7,5.1H276.4z M281.8-54.1l-1.6,4.7c-0.4,1.1-0.6,2-0.8,3h-0.1
			c-0.2-1-0.5-2-0.8-2.9l-1.6-4.7H281.8z"/>
		<path d="M297.8-44.6h2.1v-14.5h7v-1.8h-9.1V-44.6z"/>
		<path d="M327-53.2h-6.3v-5.9h7.1v-1.8h-9.2v16.3h8.8v-1.8h-6.7v-5.2h6.3V-53.2z"/>
		<path d="M339.4-58.3c0.9-0.6,2.3-1.1,3.8-1.1c2.2,0,3.4,1.1,3.4,2.8c0,1.5-0.9,2.4-3.1,3.2c-2.7,0.9-4.3,2.3-4.3,4.6
			c0,2.5,2.1,4.4,5.3,4.4c1.7,0,2.9-0.4,3.6-0.8l-0.6-1.7c-0.5,0.3-1.6,0.8-3.1,0.8c-2.2,0-3.1-1.3-3.1-2.4c0-1.5,1-2.3,3.2-3.1
			c2.8-1.1,4.2-2.4,4.2-4.8c0-2.5-1.8-4.7-5.7-4.7c-1.6,0-3.3,0.5-4.2,1.1L339.4-58.3z"/>
	</g>
</symbol>
<use xlink:href="#Nuevo_símbolo"  width="822.3" height="233.5" x="-411.2" y="-116.8" transform="matrix(0.3648 0 0 -0.3648 150 42.5937)" style="overflow:visible;"/>
</svg>
