<?xml version="1.0" encoding="utf-8"?>
<!-- Generator: Adobe Illustrator 24.2.0, SVG Export Plug-In . SVG Version: 6.00 Build 0)  -->
<svg version="1.1" id="Capa_1" xmlns="http://www.w3.org/2000/svg" xmlns:xlink="http://www.w3.org/1999/xlink" x="0px" y="0px"
	 viewBox="0 0 300 85.2" style="enable-background:new 0 0 300 85.2;" xml:space="preserve">
<style type="text/css">
	.st0{fill:#FFFFFF;}
	.st1{fill:#0F0F0F;}
	.st2{fill:url(#SVGID_1_);stroke:#39ADD4;stroke-width:1.0945;stroke-miterlimit:10;}
	.st3{fill:url(#SVGID_2_);stroke:#39ADD4;stroke-width:1.0945;stroke-miterlimit:10;}
	.st4{fill:url(#SVGID_3_);stroke:#39ADD4;stroke-width:1.0945;stroke-miterlimit:10;}
	.st5{fill:url(#SVGID_4_);stroke:#39ADD4;stroke-width:1.0945;stroke-miterlimit:10;}
	.st6{fill:url(#SVGID_5_);stroke:#39ADD4;stroke-width:1.0945;stroke-miterlimit:10;}
	.st7{fill:url(#SVGID_6_);}
	.st8{fill:url(#SVGID_7_);}
	.st9{fill:url(#SVGID_8_);}
	.st10{fill:url(#SVGID_9_);}
	.st11{fill:url(#SVGID_10_);}
	.st12{fill:url(#SVGID_11_);}
</style>
<rect y="0" class="st0" width="300" height="85.2"/>
<path class="st1" d="M0,0v85.2h300V0H0z M291.7,77.4H88.3V7.8h203.4V77.4z"/>
<g>
	<g>
		
			<linearGradient id="SVGID_1_" gradientUnits="userSpaceOnUse" x1="120.7953" y1="34.1169" x2="120.7953" y2="64.9815" gradientTransform="matrix(1 0 0 -1 0 85.0107)">
			<stop  offset="4.475343e-07" style="stop-color:#0175BE"/>
			<stop  offset="0.2615" style="stop-color:#0A7EC2"/>
			<stop  offset="0.6918" style="stop-color:#2397CB"/>
			<stop  offset="1" style="stop-color:#39ADD4"/>
		</linearGradient>
		<path class="st2" d="M138.5,20v7.9h-13v23h-9.3v-23h-13V20H138.5z"/>
		
			<linearGradient id="SVGID_2_" gradientUnits="userSpaceOnUse" x1="147.2091" y1="34.1169" x2="147.2091" y2="64.9815" gradientTransform="matrix(1 0 0 -1 0 85.0107)">
			<stop  offset="4.475343e-07" style="stop-color:#0175BE"/>
			<stop  offset="0.2615" style="stop-color:#0A7EC2"/>
			<stop  offset="0.6918" style="stop-color:#2397CB"/>
			<stop  offset="1" style="stop-color:#39ADD4"/>
		</linearGradient>
		<path class="st3" d="M151.8,20v30.9h-9.3V20H151.8z"/>
		
			<linearGradient id="SVGID_3_" gradientUnits="userSpaceOnUse" x1="176.0854" y1="33.6703" x2="176.0854" y2="65.4607" gradientTransform="matrix(1 0 0 -1 0 85.0107)">
			<stop  offset="4.475343e-07" style="stop-color:#0175BE"/>
			<stop  offset="0.2615" style="stop-color:#0A7EC2"/>
			<stop  offset="0.6918" style="stop-color:#2397CB"/>
			<stop  offset="1" style="stop-color:#39ADD4"/>
		</linearGradient>
		<path class="st4" d="M166.1,40.6c0,1.9,0.2,2.4,0.9,2.9c0.9,0.5,1.9,0.7,8.7,0.7c10.4,0,10.4,0,10.4-2.7c0-1.9-0.7-2.3-3.8-2.4
			l-7.6-0.3l-5.1-0.2l-2.6-0.1c-7.8-0.2-10-2.2-10-9c0-5.9,1.7-8.5,6.1-9.4c1.9-0.4,6.2-0.5,13.8-0.5c9.2,0,12.5,0.4,14.8,1.9
			c1.9,1.2,2.7,3.2,2.7,6.9c0,0.2,0,0.8,0,1.4H185c-0.1-1.7-0.2-2.1-0.9-2.6c-0.8-0.5-2-0.5-8.8-0.5c-8.2,0-8.8,0.2-8.8,2.4
			c0,1.2,0.4,1.8,1.4,2c0.8,0.2,3.5,0.4,10.1,0.5c10.4,0.3,12.5,0.5,14.5,1.8c2.2,1.4,3,3.5,3,7.8c0,5.4-1.3,8-4.6,9.2
			c-1.9,0.7-5.9,0.9-15.3,0.9c-9.8,0-13.7-0.4-15.9-1.8c-2.2-1.3-2.9-3.1-2.9-7.4v-1.5L166.1,40.6L166.1,40.6z"/>
		
			<linearGradient id="SVGID_4_" gradientUnits="userSpaceOnUse" x1="216.3809" y1="34.1533" x2="216.3809" y2="65.0183" gradientTransform="matrix(1 0 0 -1 0 85.0107)">
			<stop  offset="4.475343e-07" style="stop-color:#0175BE"/>
			<stop  offset="0.2615" style="stop-color:#0A7EC2"/>
			<stop  offset="0.6918" style="stop-color:#2397CB"/>
			<stop  offset="1" style="stop-color:#39ADD4"/>
		</linearGradient>
		<path class="st5" d="M233.4,20v7.3h-24.9v4.5h23.7v6.8h-23.7v4.9h25.1v7.4h-34.4V20H233.4z"/>
		
			<linearGradient id="SVGID_5_" gradientUnits="userSpaceOnUse" x1="258.2999" y1="34.133" x2="258.2999" y2="64.998" gradientTransform="matrix(1 0 0 -1 0 85.0107)">
			<stop  offset="4.475343e-07" style="stop-color:#0175BE"/>
			<stop  offset="0.2615" style="stop-color:#0A7EC2"/>
			<stop  offset="0.6918" style="stop-color:#2397CB"/>
			<stop  offset="1" style="stop-color:#39ADD4"/>
		</linearGradient>
		<path class="st6" d="M239.8,20h21.9c10.3,0,10.3,0,12.2,1.2c2.3,1.4,3,3.5,3,8.8c0,4.6-0.4,6.3-2,7.6c-0.8,0.7-1.7,1-3.5,1.3
			c4.6,0.5,5.4,1.9,5.2,9.1v2.9h-8.9v-1.7c0-3.5-0.2-4.6-0.9-5.4c-0.6-0.7-1.3-0.8-5-0.8h-12.9v7.8h-9V20z M261.6,35.3
			c4.6-0.1,4.6-0.1,5.2-0.5c0.7-0.5,1-1.4,1-3.3c0-2.1-0.4-3-1.3-3.4c-0.6-0.3-0.8-0.3-4.9-0.3h-12.8v7.6H261.6z"/>
	</g>
</g>
<g>
	<g>
		
			<linearGradient id="SVGID_6_" gradientUnits="userSpaceOnUse" x1="37.541" y1="52.7232" x2="79.5176" y2="52.7232" gradientTransform="matrix(1 0 0 -1 0 85.0107)">
			<stop  offset="2.237672e-07" style="stop-color:#DCDCDC"/>
			<stop  offset="0.3735" style="stop-color:#D9D9D9"/>
			<stop  offset="0.6439" style="stop-color:#D0D0D0"/>
			<stop  offset="0.8696" style="stop-color:#C1C1C1"/>
		</linearGradient>
		<path class="st7" d="M75.2,33.1l4.3-0.8l-1.2-7.1L74,26c-0.5-1.4-1.3-2.7-2.2-3.8l2.8-3.3l-5.5-4.6l-2.8,3.3
			c-1.3-0.7-2.7-1.2-4.2-1.5v-4.3h-7.2v4.3c-1.5,0.3-2.9,0.8-4.2,1.5L48,14.1l-5.5,4.6l2.8,3.3c-0.9,1.2-1.7,2.4-2.2,3.8l-4.3-0.8
			l-1.2,7.1l4.2,0.7c0,1.5,0.3,3,0.7,4.4l-3.8,2.2l3.6,6.2l3.7-2.2c1,1.1,2.1,2,3.4,2.8l-1.5,4.1l6.7,2.4l1.5-4
			c0.8,0.1,1.5,0.1,2.3,0.1c0.7,0,1.4,0,2.1-0.1l1.5,4.1l6.7-2.5l-1.5-4c1.2-0.8,2.4-1.8,3.4-2.8l3.8,2.2l3.6-6.2l-3.7-2.2
			C74.9,36.1,75.2,34.6,75.2,33.1z M49.8,32.3c0-4.8,3.9-8.6,8.6-8.6c4.8,0,8.6,3.9,8.6,8.6S63.3,41,58.5,41
			C53.7,41,49.8,37.1,49.8,32.3z"/>
		
			<linearGradient id="SVGID_7_" gradientUnits="userSpaceOnUse" x1="79.4965" y1="52.7232" x2="37.52" y2="52.7232" gradientTransform="matrix(1 0 0 -1 0 85.0107)">
			<stop  offset="2.237672e-07" style="stop-color:#C1C1C1"/>
			<stop  offset="9.934112e-02" style="stop-color:#C1C1C1"/>
			<stop  offset="1" style="stop-color:#C1C1C1"/>
		</linearGradient>
		<path class="st8" d="M61,12.8V16v0.9l0.9,0.2c1.3,0.3,2.7,0.8,3.9,1.4l0.8,0.4l0.6-0.7l2-2.4L73,19l-2,2.4l-0.6,0.7l0.5,0.7
			c0.8,1.1,1.5,2.3,2,3.6l0.4,0.9l0.9-0.1l3.1-0.5l0.8,4.8L75,32l-0.9,0.1l0,0.9c-0.1,1.4-0.3,2.7-0.7,4L73,37.9l0.8,0.5l2.7,1.6
			l-2.4,4.2l-2.8-1.6l-0.8-0.5l-0.6,0.7c-0.9,1-2,1.9-3.2,2.6L66,46l0.3,0.9l1.1,3l-4.6,1.7l-1.1-3l-0.3-0.9l-0.9,0.1
			c-0.7,0.1-1.3,0.1-2,0.1c-0.7,0-1.4,0-2.2-0.1l-0.9-0.1l-0.3,1l-1.1,3l-4.6-1.7l1.1-3l0.3-0.9l-0.8-0.5c-1.2-0.8-2.2-1.6-3.1-2.7
			l-0.6-0.7l-0.8,0.5l-2.7,1.6l-2.4-4.2l2.7-1.6l0.8-0.5l-0.3-0.9c-0.4-1.3-0.7-2.7-0.7-4l0-0.9l-0.9-0.1l-3.1-0.5l0.8-4.8l3.1,0.5
			l0.9,0.1l0.4-0.8c0.5-1.3,1.2-2.5,2.1-3.5l0.6-0.7l-0.6-0.7l-2-2.4l3.8-3.1l2,2.4l0.6,0.7l0.8-0.4c1.2-0.6,2.5-1.1,3.9-1.4
			l0.9-0.2v-0.9v-3.1L61,12.8 M58.5,42.1c5.4,0,9.8-4.4,9.8-9.8s-4.4-9.8-9.8-9.8c-5.4,0-9.8,4.4-9.8,9.8S53.1,42.1,58.5,42.1
			 M62.2,11.6H55v4.3c-1.5,0.3-2.9,0.8-4.2,1.5L48,14.1l-5.5,4.6l2.8,3.3c-0.9,1.2-1.7,2.4-2.2,3.8l-4.3-0.8l-1.2,7.1l4.2,0.7
			c0,1.5,0.3,3,0.7,4.4l-3.8,2.2l3.6,6.2l3.7-2.2c1,1.1,2.1,2,3.4,2.8L48,50.5l6.7,2.4l1.5-4C57,49,57.7,49,58.5,49
			c0.7,0,1.4,0,2.1-0.1l1.5,4.1l6.7-2.5l-1.5-4c1.2-0.8,2.4-1.8,3.4-2.8l3.8,2.2l3.6-6.2l-3.7-2.2c0.4-1.4,0.7-2.8,0.8-4.3l4.3-0.8
			l-1.2-7.1L74,25.9c-0.5-1.4-1.3-2.7-2.2-3.8l2.8-3.3l-5.5-4.5l-2.8,3.3c-1.3-0.7-2.7-1.2-4.2-1.5L62.2,11.6L62.2,11.6z M58.5,41
			c-4.8,0-8.6-3.9-8.6-8.6s3.9-8.6,8.6-8.6c4.8,0,8.6,3.9,8.6,8.6S63.3,41,58.5,41L58.5,41z"/>
	</g>
	<g>
		<g>
			
				<linearGradient id="SVGID_8_" gradientUnits="userSpaceOnUse" x1="18.6063" y1="26.346" x2="48.1211" y2="26.346" gradientTransform="matrix(1 0 0 -1 0 85.0107)">
				<stop  offset="2.237672e-07" style="stop-color:#DCDCDC"/>
				<stop  offset="0.3735" style="stop-color:#D9D9D9"/>
				<stop  offset="0.6439" style="stop-color:#D0D0D0"/>
				<stop  offset="0.8696" style="stop-color:#C1C1C1"/>
			</linearGradient>
			<path class="st9" d="M45.1,60.9l3.1-0.1l-0.2-5.1l-3.1,0.1c-0.3-1-0.7-2-1.2-2.9l2.3-2.1L42.6,47l-2.3,2
				c-0.8-0.6-1.8-1.1-2.8-1.5l0.4-3.1l-5.1-0.7l-0.4,3c-1.1,0.1-2.1,0.3-3.1,0.7l-1.6-2.6l-4.3,2.7l1.6,2.6
				c-0.8,0.7-1.4,1.6-1.9,2.5l-2.9-0.9l-1.6,4.9l2.9,0.9c-0.1,1.1-0.1,2.1,0.1,3.1l-2.8,1.2l1.9,4.7l2.8-1.1
				c0.6,0.9,1.3,1.6,2.1,2.3l-1.5,2.7l4.5,2.4l1.4-2.7c0.5,0.1,1.1,0.3,1.6,0.3c0.5,0.1,1,0.1,1.5,0.1l0.7,3l5-1.1l-0.6-3
				c0.9-0.4,1.9-1,2.7-1.6l2.4,1.9l3.1-4l-2.4-1.9C44.5,62.9,44.8,61.9,45.1,60.9z M27.3,57.8c0.5-3.4,3.6-5.7,6.9-5.2
				s5.7,3.6,5.2,6.9c-0.5,3.4-3.6,5.7-6.9,5.2C29.1,64.2,26.8,61.1,27.3,57.8z"/>
		</g>
		<g>
			
				<linearGradient id="SVGID_9_" gradientUnits="userSpaceOnUse" x1="48.1217" y1="26.346" x2="18.6035" y2="26.346" gradientTransform="matrix(1 0 0 -1 0 85.0107)">
				<stop  offset="2.237672e-07" style="stop-color:#C1C1C1"/>
				<stop  offset="9.934112e-02" style="stop-color:#C1C1C1"/>
				<stop  offset="1" style="stop-color:#C1C1C1"/>
			</linearGradient>
			<path class="st10" d="M33.6,44.6l3.5,0.5l-0.3,2.3L36.7,48l0.6,0.2c0.9,0.4,1.8,0.8,2.6,1.4l0.5,0.4l0.5-0.4l1.7-1.5l2.4,2.7
				l-1.7,1.5l-0.5,0.4l0.3,0.5c0.5,0.9,0.8,1.8,1.1,2.7l0.1,0.6l0.6,0l2.3-0.1l0.1,3.6L45,60.1l-0.6,0l-0.1,0.6
				c-0.2,1-0.5,1.9-0.9,2.8l-0.3,0.5l0.5,0.4l1.8,1.4l-2.2,2.8l-1.8-1.4l-0.5-0.4l-0.5,0.4c-0.8,0.6-1.6,1.1-2.5,1.5l-0.6,0.3
				l0.1,0.6l0.5,2.2l-3.5,0.7L34,70.4l-0.1-0.6h-0.6c-0.5,0-0.9,0-1.4-0.1c-0.5-0.1-1-0.2-1.5-0.3l-0.6-0.2l-0.3,0.5l-1.1,2L25.2,70
				l1.1-2l0.3-0.5l-0.5-0.4c-0.8-0.7-1.4-1.4-2-2.2l-0.4-0.5l-0.6,0.2l-2.1,0.8l-1.3-3.3l2.2-0.9l0.6-0.2l-0.1-0.6
				c-0.1-1-0.2-2-0.1-3l0.1-0.6l-0.6-0.2l-2.2-0.7l1.1-3.4l2.2,0.7l0.6,0.2l0.3-0.5c0.5-0.8,1.1-1.6,1.8-2.3l0.4-0.4l-0.3-0.5
				l-1.2-1.9l3-1.9l1.2,2l0.3,0.5l0.6-0.2c0.9-0.3,1.9-0.5,2.9-0.6l0.6,0l0.1-0.6L33.6,44.6 M33.3,65.6c3.4,0,6.3-2.6,6.8-5.9
				c0.3-1.8-0.2-3.6-1.3-5.1c-1.1-1.5-2.7-2.4-4.6-2.7c-0.3,0-0.7-0.1-1-0.1c-3.4,0-6.3,2.6-6.8,5.9c-0.3,1.8,0.2,3.6,1.3,5.1
				c1.1,1.5,2.7,2.4,4.6,2.7C32.7,65.5,33.1,65.6,33.3,65.6 M32.9,43.7l-0.4,3c-1.1,0.1-2.1,0.3-3.1,0.7l-1.6-2.6l-4.3,2.7l1.6,2.6
				c-0.8,0.7-1.4,1.6-1.9,2.5l-2.9-0.9l-1.6,4.9l2.9,0.9c-0.1,1.1-0.1,2.1,0.1,3.1l-2.8,1.2l1.9,4.7l2.8-1.1
				c0.6,0.9,1.3,1.6,2.1,2.3l-1.5,2.7l4.5,2.4l1.4-2.7c0.5,0.1,1.1,0.3,1.6,0.3c0.5,0.1,1,0.1,1.5,0.1l0.7,3l5-1.1l-0.6-3
				c0.9-0.4,1.9-1,2.7-1.6l2.4,1.9l3.1-4l-2.4-1.9c0.4-0.9,0.8-1.9,1-3l3.1-0.1L48,55.7l-3.1,0.1c-0.3-1-0.7-2-1.2-2.9l2.3-2.1
				L42.6,47l-2.3,2c-0.8-0.6-1.8-1.1-2.8-1.5l0.4-3.1L32.9,43.7L32.9,43.7z M33.3,64.8c-0.3,0-0.6,0-0.9-0.1
				c-3.4-0.5-5.7-3.6-5.2-6.9c0.4-3.1,3.1-5.3,6.1-5.3c0.3,0,0.6,0,0.9,0.1c3.4,0.5,5.7,3.6,5.2,6.9C39,62.6,36.4,64.8,33.3,64.8
				L33.3,64.8z"/>
		</g>
	</g>
	<g>
		<g>
			
				<linearGradient id="SVGID_10_" gradientUnits="userSpaceOnUse" x1="12.803" y1="52.7414" x2="36.6332" y2="52.7414" gradientTransform="matrix(1 0 0 -1 0 85.0107)">
				<stop  offset="2.237672e-07" style="stop-color:#DCDCDC"/>
				<stop  offset="0.3735" style="stop-color:#D9D9D9"/>
				<stop  offset="0.6439" style="stop-color:#D0D0D0"/>
				<stop  offset="0.8696" style="stop-color:#C1C1C1"/>
			</linearGradient>
			<path class="st11" d="M34.3,31l2.3-0.9l-1.4-3.9l-2.3,0.8c-0.5-0.7-1-1.4-1.6-2l1.2-2.2l-3.6-2.1l-1.2,2.2
				c-0.8-0.3-1.6-0.4-2.5-0.4l-0.4-2.4l-4.1,0.7l0.4,2.4c-0.8,0.3-1.5,0.8-2.2,1.3L16.9,23l-2.7,3.2l1.9,1.6
				c-0.4,0.8-0.7,1.6-0.9,2.4h-2.5v4.2h2.5c0.2,0.8,0.5,1.6,0.9,2.4l-1.9,1.6l2.7,3.2l1.9-1.6c0.7,0.5,1.4,0.9,2.2,1.3l-0.4,2.4
				l4.1,0.7l0.4-2.4c0.4,0,0.9-0.1,1.3-0.1c0.4-0.1,0.8-0.2,1.2-0.3l1.2,2.2l3.7-2l-1.2-2.2c0.6-0.6,1.2-1.2,1.6-1.9l2.3,0.8
				l1.4-3.9l-2.3-0.8C34.4,32.8,34.4,31.9,34.3,31z M19.8,33.2c-0.5-2.7,1.3-5.3,4-5.8c2.7-0.5,5.3,1.3,5.8,4c0.5,2.7-1.3,5.3-4,5.8
				S20.3,35.9,19.8,33.2z"/>
		</g>
		<g>
			
				<linearGradient id="SVGID_11_" gradientUnits="userSpaceOnUse" x1="36.629" y1="52.705" x2="12.7988" y2="52.705" gradientTransform="matrix(1 0 0 -1 0 85.0107)">
				<stop  offset="2.237672e-07" style="stop-color:#C1C1C1"/>
				<stop  offset="9.934112e-02" style="stop-color:#C1C1C1"/>
				<stop  offset="1" style="stop-color:#C1C1C1"/>
			</linearGradient>
			<path class="st12" d="M24.1,21.1l0.3,1.7l0.1,0.6l0.6,0c0.8,0,1.6,0.2,2.3,0.4l0.6,0.2l0.3-0.5l0.8-1.5l2.3,1.3l-0.8,1.5
				l-0.3,0.5l0.4,0.4c0.6,0.5,1.1,1.1,1.5,1.8l0.3,0.5l0.6-0.2l1.6-0.6l0.9,2.4L34,30.3l-0.6,0.2l0.1,0.6c0.1,0.8,0.1,1.6,0,2.3
				l-0.1,0.6l0.6,0.2l1.6,0.6l-0.9,2.4l-1.6-0.6l-0.6-0.2L32.2,37c-0.4,0.7-0.9,1.3-1.5,1.8l-0.5,0.4l0.3,0.5l0.8,1.5l-2.3,1.3
				L28.3,41L28,40.5l-0.6,0.2c-0.4,0.1-0.7,0.2-1.1,0.3c-0.4,0.1-0.8,0.1-1.2,0.1l-0.7,0.1l-0.1,0.6L24,43.5l-2.6-0.4l0.3-1.7
				l0.1-0.6l-0.6-0.2c-0.7-0.3-1.4-0.7-2-1.2L18.8,39l-0.5,0.4L17,40.5l-1.7-2l1.3-1.1l0.5-0.4l-0.3-0.5c-0.4-0.7-0.6-1.4-0.8-2.2
				l-0.1-0.6h-0.6h-1.7V31h1.7h0.6l0.1-0.6c0.2-0.8,0.4-1.5,0.8-2.2l0.3-0.5l-0.5-0.4l-1.3-1.1l1.7-2l1.3,1.1l0.5,0.4l0.5-0.4
				c0.6-0.5,1.3-0.9,2-1.2l0.6-0.2l-0.1-0.6l-0.3-1.7L24.1,21.1 M24.7,38.1c0.3,0,0.7,0,1-0.1c3.1-0.5,5.2-3.5,4.6-6.7
				c-0.5-2.7-2.9-4.7-5.7-4.7c-0.3,0-0.7,0-1,0.1c-1.5,0.3-2.8,1.1-3.7,2.4c-0.9,1.3-1.2,2.8-0.9,4.3C19.6,36.1,21.9,38.1,24.7,38.1
				 M24.7,20.2l-4.1,0.7l0.4,2.4c-0.8,0.3-1.5,0.8-2.2,1.3l-1.9-1.6l-2.7,3.2l1.9,1.6c-0.4,0.8-0.7,1.6-0.9,2.4h-2.5v4.2h2.5
				c0.2,0.8,0.5,1.6,0.9,2.4l-1.9,1.6l2.7,3.2l1.9-1.6c0.7,0.5,1.4,0.9,2.2,1.3l-0.4,2.4l4.1,0.7l0.4-2.4c0.4,0,0.9-0.1,1.3-0.1
				c0.4-0.1,0.8-0.2,1.2-0.3l1.2,2.2l3.6-2.1l-1.2-2.2c0.6-0.6,1.2-1.2,1.6-1.9l2.3,0.8l1.4-3.9l-2.3-0.8c0.1-0.8,0.1-1.7,0-2.6
				l2.3-0.9l-1.4-3.9l-2.3,0.8c-0.5-0.7-1-1.4-1.6-2l1.2-2.2l-3.6-2.1l-1.2,2.2c-0.8-0.3-1.6-0.4-2.5-0.4L24.7,20.2L24.7,20.2z
				 M24.7,37.3c-2.4,0-4.5-1.7-4.9-4.1c-0.5-2.7,1.3-5.3,4-5.8c0.3,0,0.6-0.1,0.9-0.1c2.4,0,4.5,1.7,4.9,4.1c0.5,2.7-1.3,5.3-4,5.8
				C25.3,37.3,25,37.3,24.7,37.3L24.7,37.3z"/>
		</g>
	</g>
</g>
<g>
	<path d="M102.9,63.9c0.3,0.2,0.8,0.4,1.4,0.4c0.8,0,1.2-0.4,1.2-1c0-0.5-0.3-0.9-1.1-1.2c-1-0.3-1.6-0.8-1.6-1.7
		c0-0.9,0.8-1.6,1.9-1.6c0.6,0,1.1,0.1,1.3,0.3l-0.2,0.6c-0.2-0.1-0.6-0.3-1.1-0.3c-0.8,0-1.1,0.5-1.1,0.9c0,0.5,0.4,0.8,1.2,1.1
		c1,0.4,1.5,0.9,1.5,1.8c0,0.9-0.7,1.7-2.1,1.7c-0.6,0-1.2-0.2-1.5-0.4L102.9,63.9z"/>
	<path d="M113.8,62h-2.3v2.2h2.6v0.7h-3.4v-5.9h3.2v0.7h-2.4v1.9h2.3L113.8,62L113.8,62z"/>
	<path d="M118.5,58.9c0.4-0.1,0.9-0.1,1.5-0.1c0.8,0,1.3,0.1,1.7,0.5c0.3,0.3,0.5,0.7,0.5,1.1c0,0.8-0.5,1.3-1.1,1.5v0
		c0.4,0.1,0.7,0.6,0.9,1.2c0.2,0.8,0.3,1.4,0.5,1.6h-0.8c-0.1-0.2-0.2-0.7-0.4-1.4c-0.2-0.8-0.5-1.1-1.2-1.2h-0.7v2.6h-0.8
		L118.5,58.9L118.5,58.9z M119.3,61.7h0.8c0.8,0,1.3-0.4,1.3-1.1c0-0.8-0.5-1.1-1.4-1.1c-0.4,0-0.6,0-0.8,0.1L119.3,61.7L119.3,61.7
		z"/>
	<path d="M128.1,64.8l-1.9-5.9h0.8l0.9,2.9c0.3,0.8,0.5,1.5,0.6,2.2h0c0.2-0.7,0.4-1.4,0.7-2.2l1-3h0.8l-2.1,5.9L128.1,64.8
		L128.1,64.8z"/>
	<path d="M135.8,58.8v5.9h-0.8v-5.9H135.8z"/>
	<path d="M144.7,64.6c-0.3,0.1-0.8,0.3-1.6,0.3c-1.7,0-2.9-1.1-2.9-3c0-1.9,1.3-3.1,3.1-3.1c0.7,0,1.2,0.1,1.4,0.3l-0.2,0.6
		c-0.3-0.1-0.7-0.3-1.2-0.3c-1.4,0-2.3,0.9-2.3,2.4c0,1.5,0.8,2.4,2.3,2.4c0.5,0,0.9-0.1,1.3-0.3L144.7,64.6z"/>
	<path d="M149.8,58.8v5.9H149v-5.9H149.8z"/>
	<path d="M159.6,61.8c0,2-1.2,3.1-2.8,3.1c-1.6,0-2.7-1.2-2.7-3c0-1.9,1.2-3.1,2.8-3.1C158.6,58.8,159.6,60,159.6,61.8z M155,61.9
		c0,1.3,0.7,2.4,1.9,2.4c1.2,0,1.9-1.1,1.9-2.5c0-1.2-0.6-2.4-1.9-2.4C155.6,59.4,155,60.6,155,61.9z"/>
	<path d="M163.9,63.9c0.3,0.2,0.8,0.4,1.4,0.4c0.8,0,1.2-0.4,1.2-1c0-0.5-0.3-0.9-1.1-1.2c-1-0.3-1.6-0.8-1.6-1.7
		c0-0.9,0.8-1.6,1.9-1.6c0.6,0,1.1,0.1,1.3,0.3l-0.2,0.6c-0.2-0.1-0.6-0.3-1.1-0.3c-0.8,0-1.1,0.5-1.1,0.9c0,0.5,0.4,0.8,1.2,1.1
		c1,0.4,1.5,0.9,1.5,1.8c0,0.9-0.7,1.7-2.1,1.7c-0.6,0-1.2-0.2-1.5-0.4L163.9,63.9z"/>
	<path d="M176.9,58.9c0.4-0.1,0.8-0.1,1.5-0.1c0.8,0,1.3,0.2,1.7,0.5c0.3,0.3,0.5,0.7,0.5,1.2c0,0.5-0.1,0.9-0.5,1.3
		c-0.4,0.4-1.1,0.7-1.8,0.7c-0.2,0-0.4,0-0.6-0.1v2.4h-0.8V58.9z M177.7,61.8c0.2,0,0.4,0.1,0.6,0.1c0.9,0,1.5-0.5,1.5-1.3
		c0-0.8-0.5-1.2-1.4-1.2c-0.3,0-0.6,0-0.7,0.1L177.7,61.8L177.7,61.8z"/>
	<path d="M185,58.9c0.4-0.1,0.9-0.1,1.5-0.1c0.8,0,1.3,0.1,1.7,0.5c0.3,0.3,0.5,0.7,0.5,1.1c0,0.8-0.5,1.3-1.1,1.5v0
		c0.4,0.1,0.7,0.6,0.9,1.2c0.2,0.8,0.3,1.4,0.5,1.6h-0.8c-0.1-0.2-0.2-0.7-0.4-1.4c-0.2-0.8-0.5-1.1-1.2-1.2h-0.7v2.6H185L185,58.9
		L185,58.9z M185.8,61.7h0.8c0.8,0,1.3-0.4,1.3-1.1c0-0.8-0.5-1.1-1.4-1.1c-0.4,0-0.6,0-0.8,0.1L185.8,61.7L185.8,61.7z"/>
	<path d="M198.3,61.8c0,2-1.2,3.1-2.8,3.1c-1.6,0-2.7-1.2-2.7-3c0-1.9,1.2-3.1,2.8-3.1C197.2,58.8,198.3,60,198.3,61.8z M193.7,61.9
		c0,1.3,0.7,2.4,1.9,2.4s1.9-1.1,1.9-2.5c0-1.2-0.6-2.4-1.9-2.4S193.7,60.6,193.7,61.9z"/>
	<path d="M202.6,58.8h3.2v0.7h-2.4v2h2.3v0.6h-2.3v2.7h-0.8V58.8z"/>
	<path d="M213.4,62h-2.3v2.2h2.6v0.7h-3.4v-5.9h3.2v0.7h-2.4v1.9h2.3L213.4,62L213.4,62z"/>
	<path d="M217.9,63.9c0.3,0.2,0.8,0.4,1.4,0.4c0.8,0,1.2-0.4,1.2-1c0-0.5-0.3-0.9-1.1-1.2c-1-0.3-1.6-0.8-1.6-1.7
		c0-0.9,0.8-1.6,1.9-1.6c0.6,0,1.1,0.1,1.3,0.3l-0.2,0.6c-0.2-0.1-0.6-0.3-1.1-0.3c-0.8,0-1.1,0.5-1.1,0.9c0,0.5,0.4,0.8,1.2,1.1
		c1,0.4,1.5,0.9,1.5,1.8c0,0.9-0.7,1.7-2.1,1.7c-0.6,0-1.2-0.2-1.5-0.4L217.9,63.9z"/>
	<path d="M226.5,58.8v5.9h-0.8v-5.9H226.5z"/>
	<path d="M236.3,61.8c0,2-1.2,3.1-2.8,3.1c-1.6,0-2.7-1.2-2.7-3c0-1.9,1.2-3.1,2.8-3.1C235.3,58.8,236.3,60,236.3,61.8z M231.7,61.9
		c0,1.3,0.7,2.4,1.9,2.4s1.9-1.1,1.9-2.5c0-1.2-0.6-2.4-1.9-2.4C232.4,59.4,231.7,60.6,231.7,61.9z"/>
	<path d="M240.7,64.8v-5.9h0.8l1.9,3c0.4,0.7,0.8,1.3,1.1,1.9h0c-0.1-0.8-0.1-1.5-0.1-2.4v-2.5h0.7v5.9h-0.8l-1.9-3
		c-0.4-0.7-0.8-1.3-1.1-2h0c0,0.8,0.1,1.5,0.1,2.4v2.6L240.7,64.8L240.7,64.8z"/>
	<path d="M250.9,62.9l-0.6,1.9h-0.8l2-5.9h0.9l2,5.9h-0.8l-0.6-1.9H250.9z M252.8,62.3l-0.6-1.7c-0.1-0.4-0.2-0.7-0.3-1.1h0
		c-0.1,0.4-0.2,0.7-0.3,1.1l-0.6,1.7L252.8,62.3L252.8,62.3z"/>
	<path d="M258.7,58.8h0.8v5.3h2.6v0.7h-3.3V58.8z"/>
	<path d="M269.3,62H267v2.2h2.6v0.7h-3.4v-5.9h3.2v0.7H267v1.9h2.3L269.3,62L269.3,62z"/>
	<path d="M273.8,63.9c0.3,0.2,0.8,0.4,1.4,0.4c0.8,0,1.2-0.4,1.2-1c0-0.5-0.3-0.9-1.1-1.2c-1-0.3-1.6-0.8-1.6-1.7
		c0-0.9,0.8-1.6,1.9-1.6c0.6,0,1.1,0.1,1.3,0.3l-0.2,0.6c-0.2-0.1-0.6-0.3-1.1-0.3c-0.8,0-1.1,0.5-1.1,0.9c0,0.5,0.4,0.8,1.2,1.1
		c1,0.4,1.5,0.9,1.5,1.8c0,0.9-0.7,1.7-2.1,1.7c-0.6,0-1.2-0.2-1.5-0.4L273.8,63.9z"/>
</g>
</svg>
